{
  "accessors": [
    {
      "bufferView": 2,
      "componentType": 5126,
      "count": 313,
      "max": [
        0.2053000032901764,
        1.6146399974822998,
        0.2634870111942291
      ],
      "min": [
        -0.2335049957036972,
        0.7991660237312317,
        -0.16469399631023407
      ],
      "type": "VEC3"
    },
    {
      "bufferView": 2,
      "byteOffset": 3756,
      "componentType": 5126,
      "count": 313,
      "max": [
        0.9807813167572021,
        0.9973077774047852,
        0.9924402236938477
      ],
      "min": [
        -0.9371172785758972,
        -0.9889647364616394,
        -0.9939814805984497
      ],
      "type": "VEC3"
    },
    {
      "bufferView": 1,
      "componentType": 5126,
      "count": 313,
      "max": [
        0.9950500130653381,
        0.995048999786377
      ],
      "min": [
        0.00494999997317791,
        0.00494999997317791
      ],
      "type": "VEC2"
    },
    {
      "bufferView": 0,
      "componentType": 5125,
      "count": 387,
      "type": "SCALAR"
    },
    {
      "bufferView": 2,
      "byteOffset": 7512,
      "componentType": 5126,
      "count": 312,
      "max": [
        0.20364400744438171,
        0.8287969827651978,
        0.12366800010204315
      ],
      "min": [
        -0.25620201230049133,
        0.1845420002937317,
        -0.2243410050868988
      ],
      "type": "VEC3"
    },
    {
      "bufferView": 2,
      "byteOffset": 11256,
      "componentType": 5126,
      "count": 312,
      "max": [
        0.9953886866569519,
        0.7579365968704224,
        0.998008131980896
      ],
      "min": [
        -0.992533802986145,
        -0.8325726985931396,
        -0.9995108842849731
      ],
      "type": "VEC3"
    },
    {
      "bufferView": 1,
      "byteOffset": 2504,
      "componentType": 5126,
      "count": 312,
      "max": [
        0.995048999786377,
        0.995048999786377
      ],
      "min": [
        0.5,
        0.00494999997317791
      ],
      "type": "VEC2"
    },
    {
      "bufferView": 0,
      "byteOffset": 1548,
      "componentType": 5125,
      "count": 444,
      "type": "SCALAR"
    },
    {
      "bufferView": 2,
      "byteOffset": 15000,
      "componentType": 5126,
      "count": 563,
      "max": [
        0.2937319874763489,
        1.696863055229187,
        0.35895898938179016
      ],
      "min": [
        -0.40794599056243896,
        -0.0027119999285787344,
        -0.3007889986038208
      ],
      "type": "VEC3"
    },
    {
      "bufferView": 2,
      "byteOffset": 21756,
      "componentType": 5126,
      "count": 563,
      "max": [
        0.997833788394928,
        0.9983770847320557,
        0.9962249994277954
      ],
      "min": [
        -0.9954124689102173,
        -0.9992754459381104,
        -0.9959445595741272
      ],
      "type": "VEC3"
    },
    {
      "bufferView": 1,
      "byteOffset": 5000,
      "componentType": 5126,
      "count": 563,
      "max": [
        0.9950500130653381,
        0.995048999786377
      ],
      "min": [
        0.00494999997317791,
        0.00494999997317791
      ],
      "type": "VEC2"
    },
    {
      "bufferView": 0,
      "byteOffset": 3324,
      "componentType": 5125,
      "count": 789,
      "type": "SCALAR"
    },
    {
      "bufferView": 2,
      "byteOffset": 28512,
      "componentType": 5126,
      "count": 758,
      "max": [
        0.6063759922981262,
        1.547795057296753,
        0.39815399050712585
      ],
      "min": [
        -0.3379549980163574,
        0.5943740010261536,
        -0.44747599959373474
      ],
      "type": "VEC3"
    },
    {
      "bufferView": 2,
      "byteOffset": 37608,
      "componentType": 5126,
      "count": 758,
      "max": [
        0.999975323677063,
        0.977308452129364,
        0.9983300566673279
      ],
      "min": [
        -0.9980258941650391,
        -0.9969727993011475,
        -0.9910327792167664
      ],
      "type": "VEC3"
    },
    {
      "bufferView": 1,
      "byteOffset": 9504,
      "componentType": 5126,
      "count": 758,
      "max": [
        0.995048999786377,
        0.995048999786377
      ],
      "min": [
        0.0,
        0.0
      ],
      "type": "VEC2"
    },
    {
      "bufferView": 0,
      "byteOffset": 6480,
      "componentType": 5125,
      "count": 984,
      "type": "SCALAR"
    },
    {
      "bufferView": 2,
      "byteOffset": 46704,
      "componentType": 5126,
      "count": 494,
      "max": [
        0.2937319874763489,
        1.7535309791564941,
        0.39066898822784424
      ],
      "min": [
        -0.40794599056243896,
        0.027334999293088913,
        -0.26108700037002563
      ],
      "type": "VEC3"
    },
    {
      "bufferView": 2,
      "byteOffset": 52632,
      "componentType": 5126,
      "count": 494,
      "max": [
        0.9986289739608765,
        0.9912924766540527,
        0.9976853728294373
      ],
      "min": [
        -0.9961497783660889,
        -0.9905250072479248,
        -0.9994317889213562
      ],
      "type": "VEC3"
    },
    {
      "bufferView": 1,
      "byteOffset": 15568,
      "componentType": 5126,
      "count": 494,
      "max": [
        0.995048999786377,
        0.995048999786377
      ],
      "min": [
        0.5,
        0.00494999997317791
      ],
      "type": "VEC2"
    },
    {
      "bufferView": 0,
      "byteOffset": 10416,
      "componentType": 5125,
      "count": 636,
      "type": "SCALAR"
    },
    {
      "bufferView": 2,
      "byteOffset": 58560,
      "componentType": 5126,
      "count": 144,
      "max": [
        0.20293700695037842,
        1.6231989860534668,
        0.2294519990682602
      ],
      "min": [
        -0.44581499695777893,
        0.061845000833272934,
        -0.567084014415741
      ],
      "type": "VEC3"
    },
    {
      "bufferView": 2,
      "byteOffset": 60288,
      "componentType": 5126,
      "count": 144,
      "max": [
        0.996967613697052,
        0.9894604086875916,
        0.9953863620758057
      ],
      "min": [
        -0.9936186075210571,
        -0.9950449466705322,
        -0.9819457530975342
      ],
      "type": "VEC3"
    },
    {
      "bufferView": 1,
      "byteOffset": 19520,
      "componentType": 5126,
      "count": 144,
      "max": [
        0.9950500130653381,
        0.995048999786377
      ],
      "min": [
        0.00494999997317791,
        0.00494999997317791
      ],
      "type": "VEC2"
    },
    {
      "bufferView": 0,
      "byteOffset": 12960,
      "componentType": 5125,
      "count": 186,
      "type": "SCALAR"
    },
    {
      "bufferView": 2,
      "byteOffset": 62016,
      "componentType": 5126,
      "count": 372,
      "max": [
        0.9411889910697937,
        0.47082599997520447,
        0.36781200766563416
      ],
      "min": [
        0.29886698722839355,
        0.0,
        -0.3439899981021881
      ],
      "type": "VEC3"
    },
    {
      "bufferView": 2,
      "byteOffset": 66480,
      "componentType": 5126,
      "count": 372,
      "max": [
        0.997229814529419,
        0.9447447061538696,
        0.9873979091644287
      ],
      "min": [
        -0.9973071813583374,
        -0.9998874068260193,
        -0.9895036816596985
      ],
      "type": "VEC3"
    },
    {
      "bufferView": 1,
      "byteOffset": 20672,
      "componentType": 5126,
      "count": 372,
      "max": [
        0.995048999786377,
        0.995048999786377
      ],
      "min": [
        0.5,
        0.00494999997317791
      ],
      "type": "VEC2"
    },
    {
      "bufferView": 0,
      "byteOffset": 13704,
      "componentType": 5125,
      "count": 420,
      "type": "SCALAR"
    },
    {
      "bufferView": 2,
      "byteOffset": 70944,
      "componentType": 5126,
      "count": 164,
      "max": [
        0.9147210121154785,
        0.5949469804763794,
        0.03956900164484978
      ],
      "min": [
        0.4302540123462677,
        0.20651699602603912,
        -0.4088920056819916
      ],
      "type": "VEC3"
    },
    {
      "bufferView": 2,
      "byteOffset": 72912,
      "componentType": 5126,
      "count": 164,
      "max": [
        0.967533528804779,
        0.9916931390762329,
        0.9981991052627563
      ],
      "min": [
        -0.998042643070221,
        -0.9163429141044617,
        -0.9896958470344543
      ],
      "type": "VEC3"
    },
    {
      "bufferView": 1,
      "byteOffset": 23648,
      "componentType": 5126,
      "count": 164,
      "max": [
        0.7475249767303467,
        0.995048999786377
      ],
      "min": [
        0.5,
        0.00494999997317791
      ],
      "type": "VEC2"
    },
    {
      "bufferView": 0,
      "byteOffset": 15384,
      "componentType": 5125,
      "count": 216,
      "type": "SCALAR"
    },
    {
      "bufferView": 2,
      "byteOffset": 74880,
      "componentType": 5126,
      "count": 550,
      "max": [
        0.15916700661182404,
        0.6865779757499695,
        0.022419000044465065
      ],
      "min": [
        -0.514083981513977,
        -0.0018860000418499112,
        -0.6674699783325195
      ],
      "type": "VEC3"
    },
    {
      "bufferView": 2,
      "byteOffset": 81480,
      "componentType": 5126,
      "count": 550,
      "max": [
        0.9930086135864258,
        0.9971455335617065,
        0.9698576927185059
      ],
      "min": [
        -0.9696836471557617,
        -0.9997110962867737,
        -0.9971726536750793
      ],
      "type": "VEC3"
    },
    {
      "bufferView": 1,
      "byteOffset": 24960,
      "componentType": 5126,
      "count": 550,
      "max": [
        0.995048999786377,
        0.995048999786377
      ],
      "min": [
        0.5,
        0.00494999997317791
      ],
      "type": "VEC2"
    },
    {
      "bufferView": 0,
      "byteOffset": 16248,
      "componentType": 5125,
      "count": 654,
      "type": "SCALAR"
    },
    {
      "bufferView": 2,
      "byteOffset": 88080,
      "componentType": 5126,
      "count": 60,
      "max": [
        0.20459499955177307,
        0.33878499269485474,
        -0.26650598645210266
      ],
      "min": [
        0.09260699898004532,
        0.13981300592422485,
        -0.39569300413131714
      ],
      "type": "VEC3"
    },
    {
      "bufferView": 2,
      "byteOffset": 88800,
      "componentType": 5126,
      "count": 60,
      "max": [
        0.9993976354598999,
        0.8368802070617676,
        0.9546720385551453
      ],
      "min": [
        -0.8399292826652527,
        -0.9994930624961853,
        -0.8845018148422241
      ],
      "type": "VEC3"
    },
    {
      "bufferView": 1,
      "byteOffset": 29360,
      "componentType": 5126,
      "count": 60,
      "max": [
        0.995048999786377,
        0.995048999786377
      ],
      "min": [
        0.00494999997317791,
        0.00494999997317791
      ],
      "type": "VEC2"
    },
    {
      "bufferView": 0,
      "byteOffset": 18864,
      "componentType": 5125,
      "count": 60,
      "type": "SCALAR"
    },
    {
      "bufferView": 2,
      "byteOffset": 89520,
      "componentType": 5126,
      "count": 432,
      "max": [
        0.7344480156898499,
        1.2211780548095703,
        -0.08812300115823746
      ],
      "min": [
        0.10602899640798569,
        0.33996298909187317,
        -0.48092201352119446
      ],
      "type": "VEC3"
    },
    {
      "bufferView": 2,
      "byteOffset": 94704,
      "componentType": 5126,
      "count": 432,
      "max": [
        0.9989117980003357,
        0.9998663067817688,
        0.9993408918380737
      ],
      "min": [
        -0.999126136302948,
        -0.9791168570518494,
        -0.9974459409713745
      ],
      "type": "VEC3"
    },
    {
      "bufferView": 1,
      "byteOffset": 29840,
      "componentType": 5126,
      "count": 432,
      "max": [
        0.995048999786377,
        0.995048999786377
      ],
      "min": [
        0.0,
        0.0
      ],
      "type": "VEC2"
    },
    {
      "bufferView": 0,
      "byteOffset": 19104,
      "componentType": 5125,
      "count": 516,
      "type": "SCALAR"
    },
    {
      "bufferView": 2,
      "byteOffset": 99888,
      "componentType": 5126,
      "count": 68,
      "max": [
        0.6063759922981262,
        1.0753010511398315,
        -0.3911769986152649
      ],
      "min": [
        0.22351400554180145,
        0.5784040093421936,
        -0.59893399477005
      ],
      "type": "VEC3"
    },
    {
      "bufferView": 2,
      "byteOffset": 100704,
      "componentType": 5126,
      "count": 68,
      "max": [
        0.9647951126098633,
        0.894719660282135,
        0.11108982563018799
      ],
      "min": [
        -0.9836968183517456,
        -0.8065590262413025,
        -0.9694282412528992
      ],
      "type": "VEC3"
    },
    {
      "bufferView": 1,
      "byteOffset": 33296,
      "componentType": 5126,
      "count": 68,
      "max": [
        0.0,
        0.0
      ],
      "min": [
        0.0,
        0.0
      ],
      "type": "VEC2"
    },
    {
      "bufferView": 0,
      "byteOffset": 21168,
      "componentType": 5125,
      "count": 84,
      "type": "SCALAR"
    }
  ],
  "asset": {
    "extras": {
      "author": "DavidA3D (https://sketchfab.com/DavidA3D)",
      "license": "CC-BY-NC-4.0 (http://creativecommons.org/licenses/by-nc/4.0/)",
      "source": "https://sketchfab.com/3d-models/red-pokemon-43d168857ff642988ac99c9348310cb5",
      "title": "Red (Pokemon)"
    },
    "generator": "Sketchfab-12.67.0",
    "version": "2.0"
  },
  "bufferViews": [
    {
      "buffer": 0,
      "byteLength": 21504,
      "name": "floatBufferViews",
      "target": 34963
    },
    {
      "buffer": 0,
      "byteLength": 33840,
      "byteOffset": 21504,
      "byteStride": 8,
      "name": "floatBufferViews",
      "target": 34962
    },
    {
      "buffer": 0,
      "byteLength": 101520,
      "byteOffset": 55344,
      "byteStride": 12,
      "name": "floatBufferViews",
      "target": 34962
    }
  ],
  "buffers": [
    {
      "byteLength": 156864,
      "uri": "scene.bin"
    }
  ],
  "materials": [
    {
      "doubleSided": true,
      "name": "Black",
      "pbrMetallicRoughness": {
        "baseColorFactor": [
          0.043137,
          0.043137,
          0.043137,
          1.0
        ],
        "metallicFactor": 0.0,
        "roughnessFactor": 0.9916393478289105
      }
    },
    {
      "doubleSided": true,
      "name": "Cyan",
      "pbrMetallicRoughness": {
        "baseColorFactor": [
          0.341176,
          0.658824,
          0.658824,
          1.0
        ],
        "metallicFactor": 0.0,
        "roughnessFactor": 0.8853979869290215
      }
    },
    {
      "doubleSided": true,
      "name": "White",
      "pbrMetallicRoughness": {
        "baseColorFactor": [
          0.756863,
          0.756863,
          0.756863,
          1.0
        ],
        "metallicFactor": 0.0,
        "roughnessFactor": 0.8533076411394558
      }
    },
    {
      "doubleSided": true,
      "name": "Skin",
      "pbrMetallicRoughness": {
        "baseColorFactor": [
          0.8,
          0.67451,
          0.568627,
          1.0
        ],
        "metallicFactor": 0.0,
        "roughnessFactor": 0.8655798114721722
      }
    },
    {
      "doubleSided": true,
      "name": "material",
      "pbrMetallicRoughness": {
        "baseColorFactor": [
          0.8,
          0.294118,
          0.403922,
          1.0
        ],
        "metallicFactor": 0.0,
        "roughnessFactor": 0.9206135634553712
      }
    },
    {
      "doubleSided": true,
      "name": "Yellow",
      "pbrMetallicRoughness": {
        "baseColorFactor": [
          0.796078,
          0.776471,
          0.533333,
          1.0
        ],
        "metallicFactor": 0.0,
        "roughnessFactor": 0.852101738712554
      }
    },
    {
      "doubleSided": true,
      "name": "Seafoam",
      "pbrMetallicRoughness": {
        "baseColorFactor": [
          0.32549,
          0.658824,
          0.482353,
          1.0
        ],
        "metallicFactor": 0.0,
        "roughnessFactor": 0.8885137868377522
      }
    },
    {
      "doubleSided": true,
      "name": "Green",
      "pbrMetallicRoughness": {
        "baseColorFactor": [
          0.129412,
          0.333333,
          0.129412,
          1.0
        ],
        "metallicFactor": 0.0,
        "roughnessFactor": 0.9466508525045196
      }
    },
    {
      "doubleSided": true,
      "name": "Orange",
      "pbrMetallicRoughness": {
        "baseColorFactor": [
          0.831373,
          0.541176,
          0.282353,
          1.0
        ],
        "metallicFactor": 0.0,
        "roughnessFactor": 0.8867754727622772
      }
    },
    {
      "alphaMode": "BLEND",
      "doubleSided": true,
      "emissiveFactor": [
        1.0,
        0.1647897251764173,
        0.0
      ],
      "name": "Flame",
      "pbrMetallicRoughness": {
        "baseColorFactor": [
          0.8,
          0.0862745,
          0.0862745,
          0.5671661528920344
        ],
        "metallicFactor": 0.0,
        "roughnessFactor": 0.9538692985101799
      }
    },
    {
      "doubleSided": true,
      "name": "BlueLight",
      "pbrMetallicRoughness": {
        "baseColorFactor": [
          0.403922,
          0.74902,
          0.8,
          1.0
        ],
        "metallicFactor": 0.0,
        "roughnessFactor": 0.8683342313437805
      }
    },
    {
      "doubleSided": true,
      "name": "Brown",
      "pbrMetallicRoughness": {
        "baseColorFactor": [
          0.435294,
          0.337255,
          0.270588,
          1.0
        ],
        "metallicFactor": 0.0,
        "roughnessFactor": 0.9315276728022377
      }
    }
  ],
  "meshes": [
    {
      "name": "Red_Black_0",
      "primitives": [
        {
          "attributes": {
            "NORMAL": 1,
            "POSITION": 0,
            "TEXCOORD_0": 2
          },
          "indices": 3,
          "material": 0,
          "mode": 4
        }
      ]
    },
    {
      "name": "Red_Cyan_0",
      "primitives": [
        {
          "attributes": {
            "NORMAL": 5,
            "POSITION": 4,
            "TEXCOORD_0": 6
          },
          "indices": 7,
          "material": 1,
          "mode": 4
        }
      ]
    },
    {
      "name": "Red_White_0",
      "primitives": [
        {
          "attributes": {
            "NORMAL": 9,
            "POSITION": 8,
            "TEXCOORD_0": 10
          },
          "indices": 11,
          "material": 2,
          "mode": 4
        }
      ]
    },
    {
      "name": "Red_Skin_0",
      "primitives": [
        {
          "attributes": {
            "NORMAL": 13,
            "POSITION": 12,
            "TEXCOORD_0": 14
          },
          "indices": 15,
          "material": 3,
          "mode": 4
        }
      ]
    },
    {
      "name": "Red_Red_0",
      "primitives": [
        {
          "attributes": {
            "NORMAL": 17,
            "POSITION": 16,
            "TEXCOORD_0": 18
          },
          "indices": 19,
          "material": 4,
          "mode": 4
        }
      ]
    },
    {
      "name": "Red_Yellow_0",
      "primitives": [
        {
          "attributes": {
            "NORMAL": 21,
            "POSITION": 20,
            "TEXCOORD_0": 22
          },
          "indices": 23,
          "material": 5,
          "mode": 4
        }
      ]
    },
    {
      "name": "Red_Seafoam_0",
      "primitives": [
        {
          "attributes": {
            "NORMAL": 25,
            "POSITION": 24,
            "TEXCOORD_0": 26
          },
          "indices": 27,
          "material": 6,
          "mode": 4
        }
      ]
    },
    {
      "name": "Red_Green_0",
      "primitives": [
        {
          "attributes": {
            "NORMAL": 29,
            "POSITION": 28,
            "TEXCOORD_0": 30
          },
          "indices": 31,
          "material": 7,
          "mode": 4
        }
      ]
    },
    {
      "name": "Red_Orange_0",
      "primitives": [
        {
          "attributes": {
            "NORMAL": 33,
            "POSITION": 32,
            "TEXCOORD_0": 34
          },
          "indices": 35,
          "material": 8,
          "mode": 4
        }
      ]
    },
    {
      "name": "Red_Flame_0",
      "primitives": [
        {
          "attributes": {
            "NORMAL": 37,
            "POSITION": 36,
            "TEXCOORD_0": 38
          },
          "indices": 39,
          "material": 9,
          "mode": 4
        }
      ]
    },
    {
      "name": "Red_BlueLight_0",
      "primitives": [
        {
          "attributes": {
            "NORMAL": 41,
            "POSITION": 40,
            "TEXCOORD_0": 42
          },
          "indices": 43,
          "material": 10,
          "mode": 4
        }
      ]
    },
    {
      "name": "Red_Brown_0",
      "primitives": [
        {
          "attributes": {
            "NORMAL": 45,
            "POSITION": 44,
            "TEXCOORD_0": 46
          },
          "indices": 47,
          "material": 11,
          "mode": 4
        }
      ]
    }
  ],
  "nodes": [
    {
      "children": [
        1
      ],
      "matrix": [
        1.0,
        0.0,
        0.0,
        0.0,
        0.0,
        2.220446049250313e-16,
        -1.0,
        0.0,
        0.0,
        1.0,
        2.220446049250313e-16,
        0.0,
        0.0,
        0.0,
        0.0,
        1.0
      ],
      "name": "Sketchfab_model"
    },
    {
      "children": [
        2
      ],
      "matrix": [
        1.0,
        0.0,
        0.0,
        0.0,
        0.0,
        0.0,
        1.0,
        0.0,
        0.0,
        -1.0,
        0.0,
        0.0,
        0.0,
        0.0,
        0.0,
        1.0
      ],
      "name": "299b7f3bd9554c7bb653735c4c6e0d2e.fbx"
    },
    {
      "children": [
        3
      ],
      "name": "RootNode"
    },
    {
      "children": [
        4,
        5,
        6,
        7,
        8,
        9,
        10,
        11,
        12,
        13,
        14,
        15
      ],
      "matrix": [
        100.0,
        0.0,
        0.0,
        0.0,
        0.0,
        99.99999999999866,
        1.6292067073209114e-05,
        0.0,
        0.0,
        -1.6292067073209114e-05,
        99.99999999999866,
        0.0,
        0.0,
        0.0,
        0.0,
        1.0
      ],
      "name": "Red"
    },
    {
      "mesh": 0,
      "name": "Red_Black_0"
    },
    {
      "mesh": 1,
      "name": "Red_Cyan_0"
    },
    {
      "mesh": 2,
      "name": "Red_White_0"
    },
    {
      "mesh": 3,
      "name": "Red_Skin_0"
    },
    {
      "mesh": 4,
      "name": "Red_Red_0"
    },
    {
      "mesh": 5,
      "name": "Red_Yellow_0"
    },
    {
      "mesh": 6,
      "name": "Red_Seafoam_0"
    },
    {
      "mesh": 7,
      "name": "Red_Green_0"
    },
    {
      "mesh": 8,
      "name": "Red_Orange_0"
    },
    {
      "mesh": 9,
      "name": "Red_Flame_0"
    },
    {
      "mesh": 10,
      "name": "Red_BlueLight_0"
    },
    {
      "mesh": 11,
      "name": "Red_Brown_0"
    }
  ],
  "scene": 0,
  "scenes": [
    {
      "name": "Sketchfab_Scene",
      "nodes": [
        0
      ]
    }
  ]
}
